<svg width="128" height="128" viewBox="0 0 128 128" fill="none" xmlns="http://www.w3.org/2000/svg">
<path d="M100.946 35.0714H96.161C96.1562 35.0714 96.1516 35.0733 96.1482 35.0767C96.1448 35.0801 96.1429 35.0847 96.1429 35.0895V96.1428C96.1429 97.8478 96.8202 99.4829 98.0258 100.689C99.2314 101.894 100.866 102.571 102.571 102.571C104.276 102.571 105.912 101.894 107.117 100.689C108.323 99.4829 109 97.8478 109 96.1428V43.1252C109 40.9892 108.152 38.9407 106.641 37.4303C105.131 35.9199 103.082 35.0714 100.946 35.0714Z" fill="#ECE9E0"/>
<path d="M89.7143 96.1429V27.0357C89.7143 25.9804 89.5064 24.9355 89.1026 23.9606C88.6988 22.9856 88.1069 22.0998 87.3607 21.3536C86.6145 20.6074 85.7286 20.0155 84.7537 19.6117C83.7788 19.2078 82.7338 19 81.6786 19H27.0357C24.9045 19 22.8606 19.8466 21.3536 21.3536C19.8466 22.8606 19 24.9045 19 27.0357V97.75C19 100.734 20.1853 103.595 22.295 105.705C24.4048 107.815 27.2663 109 30.25 109H99.1261C99.1565 109 99.1867 108.994 99.2148 108.983C99.243 108.971 99.2686 108.954 99.2901 108.933C99.3116 108.911 99.3286 108.886 99.3401 108.858C99.3516 108.83 99.3574 108.799 99.3571 108.769C99.357 108.718 99.3402 108.669 99.3093 108.629C99.2785 108.589 99.2352 108.561 99.1864 108.548C96.4674 107.802 94.0682 106.185 92.3571 103.944C90.6461 101.703 89.7176 98.9623 89.7143 96.1429ZM31.8571 38.2857C31.8571 37.4332 32.1958 36.6157 32.7986 36.0129C33.4014 35.4101 34.2189 35.0714 35.0714 35.0714H47.9286C48.7811 35.0714 49.5986 35.4101 50.2014 36.0129C50.8042 36.6157 51.1429 37.4332 51.1429 38.2857V51.1429C51.1429 51.9953 50.8042 52.8129 50.2014 53.4157C49.5986 54.0185 48.7811 54.3571 47.9286 54.3571H35.0714C34.2189 54.3571 33.4014 54.0185 32.7986 53.4157C32.1958 52.8129 31.8571 51.9953 31.8571 51.1429V38.2857ZM73.6429 92.9286H35.1618C33.4321 92.9286 31.9475 91.5987 31.8612 89.869C31.8402 89.4344 31.9077 89 32.0596 88.5923C32.2115 88.1846 32.4446 87.8119 32.7447 87.4969C33.0449 87.1819 33.4059 86.9311 33.8058 86.7598C34.2058 86.5884 34.6363 86.5 35.0714 86.5H73.5525C75.2821 86.5 76.7667 87.8299 76.8531 89.5596C76.8741 89.9942 76.8065 90.4285 76.6547 90.8363C76.5028 91.244 76.2697 91.6167 75.9696 91.9317C75.6694 92.2467 75.3084 92.4974 74.9085 92.6688C74.5085 92.8402 74.078 92.9285 73.6429 92.9286ZM73.6429 80.0714H35.1618C33.4321 80.0714 31.9475 78.7415 31.8612 77.0118C31.8402 76.5772 31.9077 76.1429 32.0596 75.7352C32.2115 75.3274 32.4446 74.9548 32.7447 74.6398C33.0449 74.3248 33.4059 74.074 33.8058 73.9026C34.2058 73.7313 34.6363 73.6429 35.0714 73.6429H73.5525C75.2821 73.6429 76.7667 74.9728 76.8531 76.7025C76.8741 77.1371 76.8065 77.5714 76.6547 77.9791C76.5028 78.3869 76.2697 78.7595 75.9696 79.0745C75.6694 79.3895 75.3084 79.6403 74.9085 79.8117C74.5085 79.983 74.078 80.0714 73.6429 80.0714ZM73.6429 67.2143H35.1618C33.4321 67.2143 31.9475 65.8844 31.8612 64.1547C31.8402 63.7201 31.9077 63.2858 32.0596 62.878C32.2115 62.4703 32.4446 62.0976 32.7447 61.7826C33.0449 61.4676 33.4059 61.2169 33.8058 61.0455C34.2058 60.8741 34.6363 60.7858 35.0714 60.7857H73.5525C75.2821 60.7857 76.7667 62.1156 76.8531 63.8453C76.8741 64.2799 76.8065 64.7142 76.6547 65.122C76.5028 65.5297 76.2697 65.9024 75.9696 66.2174C75.6694 66.5324 75.3084 66.7831 74.9085 66.9545C74.5085 67.1259 74.078 67.2142 73.6429 67.2143ZM73.6429 54.3571H60.8761C59.1464 54.3571 57.6618 53.0272 57.5754 51.2975C57.5545 50.8629 57.622 50.4286 57.7739 50.0209C57.9258 49.6131 58.1589 49.2405 58.459 48.9255C58.7592 48.6105 59.1202 48.3597 59.5201 48.1884C59.92 48.017 60.3506 47.9286 60.7857 47.9286H73.5525C75.2821 47.9286 76.7667 49.2585 76.8531 50.9882C76.8741 51.4228 76.8065 51.8571 76.6547 52.2648C76.5028 52.6726 76.2697 53.0452 75.9696 53.3602C75.6694 53.6752 75.3084 53.926 74.9085 54.0974C74.5085 54.2687 74.078 54.3571 73.6429 54.3571ZM73.6429 41.5H60.8761C59.1464 41.5 57.6618 40.1701 57.5754 38.4404C57.5545 38.0058 57.622 37.5715 57.7739 37.1637C57.9258 36.756 58.1589 36.3833 58.459 36.0683C58.7592 35.7533 59.1202 35.5026 59.5201 35.3312C59.92 35.1598 60.3506 35.0715 60.7857 35.0714H73.5525C75.2821 35.0714 76.7667 36.4013 76.8531 38.131C76.8741 38.5656 76.8065 39 76.6547 39.4077C76.5028 39.8154 76.2697 40.1881 75.9696 40.5031C75.6694 40.8181 75.3084 41.0689 74.9085 41.2402C74.5085 41.4116 74.078 41.5 73.6429 41.5Z" fill="#ECE9E0"/>
</svg>
