<svg width="128" height="128" viewBox="0 0 128 128" fill="none" xmlns="http://www.w3.org/2000/svg">
<path d="M24.5663 95.8711C22.4779 97.9596 22.4779 101.345 24.5663 103.434C26.6548 105.522 30.0409 105.522 32.1293 103.434L24.5663 95.8711ZM67.7814 67.7814C69.8699 65.6928 69.8699 62.3073 67.7814 60.2188C65.6928 58.1303 62.3073 58.1303 60.2188 60.2188L67.7814 67.7814ZM60.2188 60.2188C58.1303 62.3073 58.1303 65.6928 60.2188 67.7814C62.3073 69.8699 65.6928 69.8699 67.7814 67.7814L60.2188 60.2188ZM103.434 32.1293C105.522 30.0409 105.522 26.6548 103.434 24.5663C101.345 22.4779 97.9596 22.4779 95.8711 24.5663L103.434 32.1293ZM67.7814 60.2188C65.6928 58.1303 62.3073 58.1303 60.2188 60.2188C58.1303 62.3073 58.1303 65.6928 60.2188 67.7814L67.7814 60.2188ZM95.8711 103.434C97.9596 105.522 101.345 105.522 103.434 103.434C105.522 101.345 105.522 97.9596 103.434 95.8711L95.8711 103.434ZM60.2188 67.7814C62.3073 69.8699 65.6928 69.8699 67.7814 67.7814C69.8699 65.6928 69.8699 62.3073 67.7814 60.2188L60.2188 67.7814ZM32.1293 24.5663C30.0409 22.4779 26.6548 22.4779 24.5663 24.5663C22.4779 26.6548 22.4779 30.0409 24.5663 32.1293L32.1293 24.5663ZM32.1293 103.434L67.7814 67.7814L60.2188 60.2188L24.5663 95.8711L32.1293 103.434ZM67.7814 67.7814L103.434 32.1293L95.8711 24.5663L60.2188 60.2188L67.7814 67.7814ZM60.2188 67.7814L95.8711 103.434L103.434 95.8711L67.7814 60.2188L60.2188 67.7814ZM67.7814 60.2188L32.1293 24.5663L24.5663 32.1293L60.2188 67.7814L67.7814 60.2188Z" fill="#ECE9E0"/>
</svg>
