<svg width="128" height="128" viewBox="0 0 128 128" fill="none" xmlns="http://www.w3.org/2000/svg">
<path d="M27.6611 24.0006C27.6583 24.0006 27.6551 24.0006 27.6523 24.0006C26.6619 24.0006 25.7304 24.3867 25.027 25.0883C24.3159 25.7977 23.9242 26.7422 23.9242 27.7477V83.9354C23.9242 85.9958 25.607 87.6762 27.6759 87.6815C36.3978 87.7023 51.0105 89.5201 61.0912 100.069V41.2675C61.0912 40.569 60.9128 39.9129 60.5761 39.3699C52.3023 26.0455 36.4027 24.0211 27.6611 24.0006Z" fill="#ECE9E0"/>
<path d="M104.076 83.9354V27.7474C104.076 26.7418 103.684 25.7973 102.973 25.0879C102.27 24.3863 101.337 24.0002 100.348 24.0002C100.345 24.0002 100.342 24.0002 100.339 24.0002C91.5977 24.021 75.6981 26.0455 67.4239 39.3699C67.0872 39.9129 66.9092 40.569 66.9092 41.2675V100.069C76.9899 89.5198 91.6026 87.7019 100.325 87.6811C102.393 87.6758 104.076 85.9955 104.076 83.9354Z" fill="#ECE9E0"/>
<path d="M112.61 36.9584H109.893V83.9354C109.893 89.1962 105.607 93.4859 100.338 93.4989C92.9403 93.5166 80.742 94.9632 72.103 103.14C87.0443 99.4814 102.795 101.859 111.772 103.905C112.892 104.16 114.051 103.897 114.949 103.181C115.843 102.467 116.357 101.4 116.357 100.254V40.7048C116.357 38.6391 114.676 36.9584 112.61 36.9584Z" fill="#ECE9E0"/>
<path d="M18.1065 83.9354V36.9584H15.3896C13.3242 36.9584 11.6431 38.6391 11.6431 40.7048V100.253C11.6431 101.399 12.1565 102.466 13.0513 103.18C13.9486 103.895 15.1057 104.16 16.2283 103.904C25.2048 101.858 40.956 99.4803 55.8966 103.139C47.2578 94.9625 35.0596 93.5162 27.6615 93.4986C22.393 93.4859 18.1065 89.1961 18.1065 83.9354Z" fill="#ECE9E0"/>
</svg>
