<svg width="128" height="128" viewBox="0 0 128 128" fill="none" xmlns="http://www.w3.org/2000/svg">
<path d="M29.9528 71.9666V36.5699H19.6826C14.7184 36.5699 10.6666 40.711 10.6666 45.7639V88.7723C10.6666 93.8252 14.7184 97.9667 19.6826 97.9667H32.5993V107.439C32.5993 108.073 32.9793 108.643 33.5491 108.884C34.1191 109.124 34.7901 108.985 35.2205 108.542L45.6047 97.9667H67.791C72.7551 97.9667 76.8074 93.8252 76.8074 88.7723V88.7596H46.5545C37.3987 88.7596 29.9528 81.2241 29.9528 71.9666Z" fill="#ECE9E0"/>
<path d="M107.066 19H46.554C40.9071 19 36.2867 23.7063 36.2867 29.4577V71.9655C36.2867 77.7175 40.9071 82.4236 46.554 82.4236H80.8598L96.5573 98.2638C97.0571 98.7726 97.8082 98.9246 98.4605 98.6496C99.1132 98.3742 99.5388 97.7259 99.5388 97.0065V82.4236H107.066C112.713 82.4236 117.333 77.7173 117.333 71.9655V29.4577C117.333 23.7063 112.713 19 107.066 19ZM87.574 69.024H51.4832V63.9582H87.574V69.024ZM102.137 53.1936H51.4832V48.1281H102.137V53.1936ZM102.137 37.3631H51.4832V32.2975H102.137V37.3631Z" fill="#ECE9E0"/>
</svg>
