<svg width="128" height="128" viewBox="0 0 128 128" fill="none" xmlns="http://www.w3.org/2000/svg">
<path d="M89.5269 115.216V63.5963C82.4449 62.3136 76.7688 58.5187 72.4161 54.5853L69.4252 72.5305L77.7959 80.9014C78.7554 81.8608 79.2945 83.1622 79.2945 84.5191V115.216C79.2945 118.042 77.0038 120.333 74.1782 120.333C71.3526 120.333 69.062 118.042 69.062 115.216V86.6382L61.8267 79.4029H57.7079L48.4444 116.457C47.7591 119.199 44.9813 120.865 42.24 120.18C39.4988 119.495 37.8321 116.717 38.5174 113.976L48.7205 73.1632L54.4962 44.2856C56.0987 36.2721 65.9858 33.2781 71.7645 39.0566L72.6793 39.9712L72.7482 40.0414C72.8164 40.1122 72.8825 40.1851 72.9465 40.2597C77.2801 45.3155 82.5471 51.1083 89.5269 53.1032V51.2636C89.5269 48.438 91.8176 46.1474 94.6432 46.1474C97.4688 46.1474 99.7593 48.438 99.7594 51.2636V115.216C99.7594 118.042 97.4688 120.333 94.6432 120.333C91.8176 120.333 89.5269 118.042 89.5269 115.216ZM43.4808 33.3569C45.0136 33.3569 46.4657 34.0441 47.4375 35.2295C48.4092 36.4148 48.7984 37.9734 48.4978 39.4764L43.3814 65.0576C43.0936 66.4966 42.2018 67.7427 40.9326 68.4793C39.6633 69.2158 38.1389 69.3719 36.7467 68.9078L29.0724 66.3498C27.7851 65.9207 26.721 64.9978 26.1142 63.7841C25.5074 62.5705 25.4075 61.1654 25.8366 59.8782L32.3449 40.3534C33.7377 36.1751 37.6479 33.3569 42.0522 33.3569H43.4808ZM71.6202 10.3339C77.2715 10.3339 81.8525 14.9151 81.8525 20.5662C81.8525 26.2173 77.2715 30.7987 71.6202 30.7987C65.9688 30.7987 61.3877 26.2174 61.3877 20.5662C61.3877 14.9151 65.9688 10.3339 71.6202 10.3339Z" fill="#ECE9E0"/>
</svg>
