<svg width="128" height="128" viewBox="0 0 128 128" fill="none" xmlns="http://www.w3.org/2000/svg">
<mask id="mask0_121_183" style="mask-type:luminance" maskUnits="userSpaceOnUse" x="19" y="19" width="90" height="90">
<path d="M109 19H19V109H109V19Z" fill="white"/>
</mask>
<g mask="url(#mask0_121_183)">
<path fill-rule="evenodd" clip-rule="evenodd" d="M22.75 19C24.8211 19 26.5 20.6789 26.5 22.75V49H37.75C35.6789 49 34 47.3211 34 45.25V37.75C34 35.6789 35.6789 34 37.75 34H52.75C54.821 34 56.5 35.6789 56.5 37.75V45.25C56.5 47.3211 54.821 49 52.75 49H67.75C65.6789 49 64 47.3211 64 45.25V30.25C64 28.179 65.6789 26.5 67.75 26.5H90.25C92.3211 26.5 94 28.179 94 30.25V45.25C94 47.3211 92.3211 49 90.25 49H101.5V22.75C101.5 20.6789 103.179 19 105.25 19C107.321 19 109 20.6789 109 22.75V105.25C109 107.321 107.321 109 105.25 109C103.179 109 101.5 107.321 101.5 105.25V101.5H26.5V105.25C26.5 107.321 24.8211 109 22.75 109C20.6789 109 19 107.321 19 105.25V22.75C19 20.6789 20.6789 19 22.75 19ZM101.5 94H90.25C92.3211 94 94 92.3211 94 90.25V75.25C94 73.1789 92.3211 71.5 90.25 71.5H71.5C69.4289 71.5 67.75 73.1789 67.75 75.25V90.25C67.75 92.3211 69.4289 94 71.5 94H56.5C58.5711 94 60.25 92.3211 60.25 90.25V67.75C60.25 65.6789 58.5711 64 56.5 64H37.75C35.6789 64 34 65.6789 34 67.75V90.25C34 92.3211 35.6789 94 37.75 94H26.5V56.5H101.5V94Z" fill="#ECE9E0"/>
</g>
</svg>
