<svg width="128" height="128" viewBox="0 0 128 128" fill="none" xmlns="http://www.w3.org/2000/svg">
<path d="M21.6427 109H18.4284C16.7235 109 15.0884 108.323 13.8828 107.117C12.6772 105.911 11.9999 104.276 11.9999 102.571V35.0714C11.9999 33.3664 12.6772 31.7313 13.8828 30.5257C15.0884 29.3201 16.7235 28.6428 18.4284 28.6428H21.6427C23.3477 28.6428 24.9828 29.3201 26.1884 30.5257C27.394 31.7313 28.0713 33.3664 28.0713 35.0714V102.571C28.0713 104.276 27.394 105.911 26.1884 107.117C24.9828 108.323 23.3477 109 21.6427 109Z" fill="#ECE9E0"/>
<path d="M59.9999 47.9286C59.9999 46.2236 59.3226 44.5885 58.117 43.3829C56.9114 42.1773 55.2763 41.5 53.5713 41.5H40.7142C39.0092 41.5 37.3741 42.1773 36.1685 43.3829C34.9629 44.5885 34.2856 46.2236 34.2856 47.9286V53.5536C34.2856 53.7667 34.3702 53.9711 34.5209 54.1218C34.6716 54.2725 34.876 54.3571 35.0892 54.3571H59.1963C59.4094 54.3571 59.6138 54.2725 59.7645 54.1218C59.9152 53.9711 59.9999 53.7667 59.9999 53.5536V47.9286Z" fill="#ECE9E0"/>
<path d="M34.2856 102.571C34.2856 104.276 34.9629 105.911 36.1685 107.117C37.3741 108.323 39.0092 109 40.7142 109H53.5713C55.2763 109 56.9114 108.323 58.117 107.117C59.3226 105.911 59.9999 104.276 59.9999 102.571V96.5446C59.9999 96.438 59.9575 96.3359 59.8822 96.2605C59.8068 96.1852 59.7046 96.1428 59.5981 96.1428H34.6874C34.5808 96.1428 34.4786 96.1852 34.4033 96.2605C34.3279 96.3359 34.2856 96.438 34.2856 96.5446V102.571Z" fill="#ECE9E0"/>
<path d="M59.5981 60.7858H34.6874C34.4655 60.7858 34.2856 60.9657 34.2856 61.1876V89.3126C34.2856 89.5345 34.4655 89.7143 34.6874 89.7143H59.5981C59.82 89.7143 59.9999 89.5345 59.9999 89.3126V61.1876C59.9999 60.9657 59.82 60.7858 59.5981 60.7858Z" fill="#ECE9E0"/>
<path d="M79.0712 109H72.6426C70.9377 109 69.3025 108.323 68.0969 107.117C66.8913 105.912 66.2141 104.276 66.2141 102.571V25.4286C66.2141 23.7236 66.8913 22.0885 68.0969 20.8829C69.3025 19.6773 70.9377 19 72.6426 19H79.0712C80.7762 19 82.4113 19.6773 83.6169 20.8829C84.8225 22.0885 85.4998 23.7236 85.4998 25.4286V102.571C85.4998 104.276 84.8225 105.912 83.6169 107.117C82.4113 108.323 80.7762 109 79.0712 109Z" fill="#ECE9E0"/>
<path d="M116.406 102.059L109.932 33.7555C109.634 30.6116 106.528 28.3314 102.995 28.6709L96.5963 29.2736C93.0626 29.6091 90.439 32.4297 90.7363 35.5736L97.2111 103.877C97.5084 107.021 100.614 109.301 104.148 108.962L110.546 108.359C114.08 108.024 116.704 105.203 116.406 102.059Z" fill="#ECE9E0"/>
</svg>
