<svg width="128" height="128" viewBox="0 0 128 128" fill="none" xmlns="http://www.w3.org/2000/svg">
<path d="M53.1346 89.551C53.1346 94.1354 53.1346 97.5067 53.1346 100.014C53.1346 104.904 55.3058 109.251 63.9999 109.251C72.6943 109.251 74.8653 104.904 74.8653 100.014C74.8653 97.5067 74.8653 94.1354 74.8653 89.551C71.3634 89.9903 67.7342 90.2339 63.9999 90.2339C60.2659 90.2339 56.6365 89.9903 53.1346 89.551Z" fill="#ECE9E0"/>
<path d="M105.565 54.9112C97.4146 40.9578 83.5598 19.2507 64.0001 19.2507C44.4404 19.2507 30.5856 40.9578 22.4356 54.9112C14.2856 68.8664 33.0305 84.9925 64.0001 84.9925C94.9697 84.9927 113.714 68.8664 105.565 54.9112ZM37.8536 68.1501C33.5398 68.1501 30.0428 64.6529 30.0428 60.3409C30.0428 56.0255 33.5398 52.53 37.8536 52.53C42.1657 52.53 45.6629 56.0256 45.6629 60.3409C45.6629 64.6529 42.1657 68.1501 37.8536 68.1501ZM53.2699 41.596C53.2699 36.6058 57.3146 32.5627 62.3033 32.5627C67.2901 32.5627 71.335 36.6058 71.335 41.596C71.335 46.5831 67.2901 50.6278 62.3033 50.6278C57.3146 50.6278 53.2699 46.5831 53.2699 41.596ZM68.6864 76.7076C64.9728 76.7076 61.9627 73.6975 61.9627 69.9839C61.9627 66.2703 64.9728 63.2602 68.6864 63.2602C72.4 63.2602 75.41 66.2703 75.41 69.9839C75.41 73.6973 72.4 76.7076 68.6864 76.7076ZM92.8924 65.2483C89.0098 64.6197 86.1526 60.8597 86.7704 57.0379C87.3659 53.3624 90.9186 51.3984 94.484 52.4553C97.803 53.4405 100.095 56.7658 99.7943 60.0434C99.4823 63.4352 96.4897 65.8308 92.8924 65.2483Z" fill="#ECE9E0"/>
</svg>
