<svg width="128" height="128" viewBox="0 0 128 128" fill="none" xmlns="http://www.w3.org/2000/svg">
<path d="M28.7831 35.9514C33.4648 35.9514 37.2579 32.1552 37.2579 27.4765C37.2579 22.7929 33.4648 18.9999 28.7831 18.9999C24.0994 18.9999 20.3065 22.7929 20.3065 27.4765C20.3065 32.1552 24.0994 35.9514 28.7831 35.9514Z" fill="#ECE9E0"/>
<path d="M57.5776 61.7882C57.5776 61.6155 57.549 61.4506 57.527 61.2842L70.1862 52.0964C70.9815 51.518 71.1606 50.3996 70.5822 49.6025C70.2465 49.1415 69.7062 48.8657 69.1357 48.8657C68.757 48.8657 68.3959 48.9845 68.0884 49.2064L55.4038 58.4133C54.9315 58.1979 54.4135 58.0696 53.8605 58.0696H46.9652L45.2919 48.5427C44.3729 43.7389 42.4448 39.9664 38.3381 39.9664H20.9273C16.8208 39.9664 12.3529 44.4343 12.3529 48.5427V77.0299C12.3529 79.0833 14.0165 80.7485 16.0699 80.7485C17.0808 80.7485 16.0699 80.7485 18.6652 80.7485L20.0784 105.044C20.0784 107.229 21.8513 109 24.0363 109C25.6744 109 29.7655 109 31.9502 109C34.1351 109 35.9064 107.229 35.9064 105.044L37.7633 56.921H37.8567L38.9199 61.6155C39.2718 63.8542 41.1982 65.5051 43.4641 65.5051H53.8609C55.914 65.5051 57.5776 63.8415 57.5776 61.7882ZM26.0769 56.5072V42.9654H30.9443V56.5072L28.3585 59.5572L26.0769 56.5072Z" fill="#ECE9E0"/>
<path d="M50.7506 21.9297V52.8774H55.6179V26.7968H110.78V73.3067H55.6179V67.4524H50.7506V78.1738H115.647V21.9297H50.7506Z" fill="#ECE9E0"/>
</svg>
