<svg width="42" height="52" viewBox="0 0 42 52" fill="none" xmlns="http://www.w3.org/2000/svg">
<path d="M12.2065 29.2011C15.594 38.4388 22.2771 44.4943 27.1336 42.7264C31.9902 40.9585 33.1811 32.0366 29.7936 22.7989C27.1043 15.4652 22.7068 11.3305 18.2854 9.87483C16.1525 9.17259 13.8289 10.0494 12.7811 12.0296C10.7819 15.8082 9.63913 22.2001 12.2065 29.2011Z" fill="#816751"/>
<path d="M17.0662 5.40838C14.6962 5.07356 12.2373 5.92465 10.699 7.87485C6.99218 12.5743 4.09171 21.4496 7.5552 30.8945C9.58746 36.4364 12.8519 41.0111 16.5632 43.9035C20.2546 46.7804 24.596 48.1272 28.5817 46.6764C32.5676 45.2255 35.0156 41.407 35.9761 36.8367C36.9418 32.2417 36.4773 26.6477 34.4451 21.1058C30.8929 11.419 24.0796 6.39952 17.0662 5.40838Z" stroke="#816751" stroke-width="3"/>
</svg>
